<?xml version="1.0" encoding="UTF-8"?>
<svg xmlns="http://www.w3.org/2000/svg" xmlns:xlink="http://www.w3.org/1999/xlink" width="24px" height="24px" viewBox="0 0 24 24" version="1.1">
<g id="surface1">
<path style=" stroke:none;fill-rule:nonzero;fill:rgb(0%,0%,0%);fill-opacity:1;" d="M 12 24 C 13.65625 24 15 22.65625 15 21 L 9 21 C 9 22.65625 10.34375 24 12 24 M 12 2.878906 L 10.804688 3.117188 C 8.007812 3.6875 6 6.144531 6 9 C 6 9.941406 5.800781 12.296875 5.3125 14.613281 C 5.070312 15.761719 4.746094 16.960938 4.316406 18 L 19.683594 18 C 19.253906 16.960938 18.929688 15.765625 18.6875 14.613281 C 18.199219 12.296875 18 9.941406 18 9 C 18 6.148438 15.992188 3.6875 13.195312 3.121094 Z M 21.328125 18 C 21.664062 18.671875 22.050781 19.203125 22.5 19.5 L 1.5 19.5 C 1.949219 19.203125 2.335938 18.671875 2.671875 18 C 4.019531 15.300781 4.5 10.320312 4.5 9 C 4.5 5.371094 7.078125 2.339844 10.507812 1.648438 C 10.449219 1.078125 10.722656 0.527344 11.207031 0.226562 C 11.691406 -0.078125 12.308594 -0.078125 12.792969 0.226562 C 13.277344 0.527344 13.550781 1.078125 13.492188 1.648438 C 16.988281 2.359375 19.5 5.433594 19.5 9 C 19.5 10.320312 19.980469 15.300781 21.328125 18 "/>
</g>
</svg>
