<?xml version="1.0" encoding="UTF-8"?>
<svg xmlns="http://www.w3.org/2000/svg" xmlns:xlink="http://www.w3.org/1999/xlink" width="24px" height="24px" viewBox="0 0 24 24" version="1.1">
<g id="surface1">
<path style=" stroke:none;fill-rule:nonzero;fill:rgb(0%,0%,0%);fill-opacity:1;" d="M 12 22.246094 C 17.59375 22.246094 22.246094 17.605469 22.246094 12 C 22.246094 6.40625 17.585938 1.753906 11.988281 1.753906 C 6.386719 1.753906 1.753906 6.40625 1.753906 12 C 1.753906 17.605469 6.394531 22.246094 12 22.246094 Z M 13.042969 8.964844 L 17.183594 13.355469 C 17.503906 13.699219 17.503906 14.179688 17.214844 14.472656 C 16.890625 14.8125 16.390625 14.824219 16.089844 14.492188 L 12 10.171875 L 7.910156 14.492188 C 7.609375 14.824219 7.109375 14.8125 6.785156 14.472656 C 6.496094 14.179688 6.496094 13.699219 6.816406 13.355469 L 10.945312 8.964844 C 11.609375 8.261719 12.390625 8.261719 13.042969 8.964844 Z M 13.042969 8.964844 "/>
</g>
</svg>
