<?xml version="1.0" encoding="UTF-8"?>
<svg xmlns="http://www.w3.org/2000/svg" xmlns:xlink="http://www.w3.org/1999/xlink" width="24px" height="24px" viewBox="0 0 24 24" version="1.1">
<g id="surface1">
<path style=" stroke:none;fill-rule:nonzero;fill:rgb(100%,100%,100%);fill-opacity:1;" d="M 5.625 15 C 5.625 14.585938 5.289062 14.25 4.875 14.25 C 4.460938 14.25 4.125 14.585938 4.125 15 Z M 4.875 16 L 4.125 16 Z M 19.273438 15 C 19.273438 14.585938 18.9375 14.25 18.523438 14.25 C 18.109375 14.25 17.773438 14.585938 17.773438 15 Z M 11.109375 15.539062 C 10.855469 15.867188 10.910156 16.335938 11.238281 16.589844 C 11.566406 16.847656 12.035156 16.789062 12.292969 16.460938 Z M 16.191406 11.460938 C 16.445312 11.132812 16.386719 10.664062 16.0625 10.410156 C 15.734375 10.152344 15.261719 10.210938 15.007812 10.539062 Z M 11.109375 16.460938 C 11.363281 16.789062 11.835938 16.847656 12.160156 16.589844 C 12.488281 16.335938 12.546875 15.867188 12.292969 15.539062 Z M 8.390625 10.539062 C 8.136719 10.210938 7.664062 10.152344 7.339844 10.410156 C 7.011719 10.664062 6.953125 11.132812 7.207031 11.460938 Z M 10.949219 16 C 10.949219 16.414062 11.285156 16.75 11.699219 16.75 C 12.113281 16.75 12.449219 16.414062 12.449219 16 Z M 12.449219 5 C 12.449219 4.585938 12.113281 4.25 11.699219 4.25 C 11.285156 4.25 10.949219 4.585938 10.949219 5 Z M 4.125 15 L 4.125 16 L 5.625 16 L 5.625 15 Z M 4.125 16 C 4.125 18.054688 5.753906 19.75 7.800781 19.75 L 7.800781 18.25 C 6.617188 18.25 5.625 17.261719 5.625 16 Z M 7.800781 19.75 L 15.601562 19.75 L 15.601562 18.25 L 7.800781 18.25 Z M 15.601562 19.75 C 17.648438 19.75 19.273438 18.054688 19.273438 16 L 17.773438 16 C 17.773438 17.261719 16.785156 18.25 15.601562 18.25 Z M 19.273438 16 L 19.273438 15 L 17.773438 15 L 17.773438 16 Z M 12.292969 16.460938 L 16.191406 11.460938 L 15.007812 10.539062 L 11.109375 15.539062 Z M 12.292969 15.539062 L 8.390625 10.539062 L 7.207031 11.460938 L 11.109375 16.460938 Z M 12.449219 16 L 12.449219 5 L 10.949219 5 L 10.949219 16 Z M 12.449219 16 "/>
</g>
</svg>
