<?xml version="1.0" encoding="UTF-8"?>
<svg xmlns="http://www.w3.org/2000/svg" xmlns:xlink="http://www.w3.org/1999/xlink" width="24px" height="24px" viewBox="0 0 24 24" version="1.1">
<g id="surface1">
<path style=" stroke:none;fill-rule:nonzero;fill:rgb(0%,0%,0%);fill-opacity:1;" d="M 12 16.75 C 11.800781 16.746094 11.613281 16.667969 11.472656 16.527344 C 11.332031 16.386719 11.253906 16.199219 11.25 16 L 11.25 11 C 11.25 10.800781 11.328125 10.609375 11.46875 10.46875 C 11.609375 10.328125 11.800781 10.25 12 10.25 C 12.199219 10.25 12.390625 10.328125 12.53125 10.46875 C 12.671875 10.609375 12.75 10.800781 12.75 11 L 12.75 16 C 12.746094 16.199219 12.667969 16.386719 12.527344 16.527344 C 12.386719 16.667969 12.199219 16.746094 12 16.75 Z M 12 16.75 "/>
<path style=" stroke:none;fill-rule:nonzero;fill:rgb(0%,0%,0%);fill-opacity:1;" d="M 12 9.25 C 11.800781 9.246094 11.613281 9.167969 11.472656 9.027344 C 11.332031 8.886719 11.253906 8.699219 11.25 8.5 L 11.25 8 C 11.25 7.800781 11.328125 7.609375 11.46875 7.46875 C 11.609375 7.328125 11.800781 7.25 12 7.25 C 12.199219 7.25 12.390625 7.328125 12.53125 7.46875 C 12.671875 7.609375 12.75 7.800781 12.75 8 L 12.75 8.5 C 12.746094 8.699219 12.667969 8.886719 12.527344 9.027344 C 12.386719 9.167969 12.199219 9.246094 12 9.25 Z M 12 9.25 "/>
<path style=" stroke:none;fill-rule:nonzero;fill:rgb(0%,0%,0%);fill-opacity:1;" d="M 12 21 C 10.21875 21 8.480469 20.472656 7 19.484375 C 5.519531 18.496094 4.367188 17.089844 3.683594 15.445312 C 3.003906 13.800781 2.824219 11.988281 3.171875 10.246094 C 3.519531 8.5 4.378906 6.894531 5.636719 5.636719 C 6.894531 4.378906 8.5 3.519531 10.246094 3.171875 C 11.988281 2.824219 13.800781 3.003906 15.445312 3.683594 C 17.089844 4.367188 18.496094 5.519531 19.484375 7 C 20.472656 8.480469 21 10.21875 21 12 C 21 14.386719 20.050781 16.675781 18.363281 18.363281 C 16.675781 20.050781 14.386719 21 12 21 Z M 12 4.5 C 10.515625 4.5 9.066406 4.941406 7.832031 5.765625 C 6.601562 6.589844 5.636719 7.757812 5.070312 9.128906 C 4.503906 10.5 4.355469 12.007812 4.644531 13.464844 C 4.933594 14.917969 5.648438 16.253906 6.695312 17.304688 C 7.746094 18.351562 9.082031 19.066406 10.535156 19.355469 C 11.992188 19.644531 13.5 19.496094 14.871094 18.929688 C 16.242188 18.363281 17.410156 17.398438 18.234375 16.167969 C 19.058594 14.933594 19.5 13.484375 19.5 12 C 19.5 10.011719 18.710938 8.101562 17.304688 6.695312 C 15.898438 5.289062 13.988281 4.5 12 4.5 Z M 12 4.5 "/>
</g>
</svg>
