<?xml version="1.0" encoding="UTF-8"?>
<svg xmlns="http://www.w3.org/2000/svg" xmlns:xlink="http://www.w3.org/1999/xlink" width="24px" height="24px" viewBox="0 0 24 24" version="1.1">
<g id="surface1">
<path style=" stroke:none;fill-rule:nonzero;fill:rgb(0%,0%,0%);fill-opacity:1;" d="M 3 9 C 3 4.910156 5.757812 1.332031 9.71875 0.292969 C 13.675781 -0.742188 17.835938 1.019531 19.84375 4.582031 C 21.847656 8.148438 21.199219 12.617188 18.261719 15.464844 C 17.957031 15.757812 17.722656 16.066406 17.582031 16.394531 L 16.4375 19.046875 C 16.320312 19.320312 16.050781 19.5 15.75 19.5 L 8.25 19.5 C 7.949219 19.5 7.679688 19.324219 7.558594 19.046875 L 6.417969 16.390625 C 6.253906 16.042969 6.023438 15.726562 5.738281 15.464844 C 3.984375 13.773438 2.996094 11.4375 3 9 M 7.5 21.75 C 7.5 21.335938 7.835938 21 8.25 21 L 15.75 21 C 16.164062 21 16.5 21.335938 16.5 21.75 C 16.5 22.164062 16.164062 22.5 15.75 22.5 L 15.414062 23.171875 C 15.160156 23.679688 14.640625 24 14.074219 24 L 9.925781 24 C 9.359375 24 8.839844 23.679688 8.585938 23.171875 L 8.25 22.5 C 7.835938 22.5 7.5 22.164062 7.5 21.75 "/>
</g>
</svg>
