<?xml version="1.0" encoding="UTF-8"?>
<svg xmlns="http://www.w3.org/2000/svg" xmlns:xlink="http://www.w3.org/1999/xlink" width="24px" height="24px" viewBox="0 0 24 24" version="1.1">
<g id="surface1">
<path style=" stroke:none;fill-rule:nonzero;fill:rgb(0%,0%,0%);fill-opacity:1;" d="M 23.078125 3.691406 L 17.539062 3.691406 L 17.539062 0.921875 C 17.539062 0.414062 17.125 0 16.617188 0 L 7.382812 0 C 6.875 0 6.460938 0.414062 6.460938 0.921875 L 6.460938 3.691406 L 0.921875 3.691406 C 0.414062 3.691406 0 4.105469 0 4.617188 C 0 5.125 0.414062 5.539062 0.921875 5.539062 L 4.152344 5.539062 L 4.152344 23.078125 C 4.152344 23.585938 4.566406 24 5.078125 24 L 18.921875 24 C 19.433594 24 19.847656 23.585938 19.847656 23.078125 L 19.847656 5.539062 L 23.078125 5.539062 C 23.585938 5.539062 24 5.125 24 4.617188 C 24 4.105469 23.585938 3.691406 23.078125 3.691406 Z M 8.308594 1.847656 L 15.691406 1.847656 L 15.691406 3.691406 L 8.308594 3.691406 Z M 18 22.152344 L 6 22.152344 L 6 5.539062 L 18 5.539062 Z M 18 22.152344 "/>
<path style=" stroke:none;fill-rule:nonzero;fill:rgb(0%,0%,0%);fill-opacity:1;" d="M 12 6.667969 C 11.488281 6.667969 11.078125 7.082031 11.078125 7.59375 L 11.078125 20.71875 C 11.078125 21.226562 11.488281 21.640625 12 21.640625 C 12.511719 21.640625 12.921875 21.226562 12.921875 20.71875 L 12.921875 7.59375 C 12.921875 7.082031 12.511719 6.667969 12 6.667969 Z M 12 6.667969 "/>
<path style=" stroke:none;fill-rule:nonzero;fill:rgb(0%,0%,0%);fill-opacity:1;" d="M 15.488281 6.667969 C 14.980469 6.667969 14.566406 7.082031 14.566406 7.59375 L 14.566406 20.71875 C 14.566406 21.226562 14.980469 21.640625 15.488281 21.640625 C 16 21.640625 16.414062 21.226562 16.414062 20.71875 L 16.414062 7.59375 C 16.414062 7.082031 16 6.667969 15.488281 6.667969 Z M 15.488281 6.667969 "/>
<path style=" stroke:none;fill-rule:nonzero;fill:rgb(0%,0%,0%);fill-opacity:1;" d="M 8.511719 6.667969 C 8 6.667969 7.585938 7.082031 7.585938 7.59375 L 7.585938 20.71875 C 7.585938 21.226562 8 21.640625 8.511719 21.640625 C 9.019531 21.640625 9.433594 21.226562 9.433594 20.71875 L 9.433594 7.59375 C 9.433594 7.082031 9.019531 6.667969 8.511719 6.667969 Z M 8.511719 6.667969 "/>
</g>
</svg>
