<?xml version="1.0" encoding="UTF-8"?>
<svg xmlns="http://www.w3.org/2000/svg" xmlns:xlink="http://www.w3.org/1999/xlink" width="24px" height="24px" viewBox="0 0 24 24" version="1.1">
<g id="surface1">
<path style=" stroke:none;fill-rule:nonzero;fill:rgb(0%,0%,0%);fill-opacity:1;" d="M 7.746094 21 L 22.5 21 C 22.050781 20.703125 21.664062 20.171875 21.328125 19.5 C 19.980469 16.800781 19.5 11.820312 19.5 10.5 C 19.5 10.105469 19.46875 9.714844 19.410156 9.335938 L 18.003906 10.742188 C 18.03125 11.804688 18.238281 13.972656 18.6875 16.113281 C 18.929688 17.261719 19.253906 18.460938 19.683594 19.5 L 9.246094 19.5 Z M 16.117188 6.136719 C 15.304688 5.367188 14.292969 4.84375 13.195312 4.621094 L 12 4.375 L 10.804688 4.617188 C 8.007812 5.1875 6 7.644531 6 10.5 C 6 11.441406 5.800781 13.796875 5.3125 16.113281 C 5.238281 16.472656 5.152344 16.828125 5.0625 17.191406 L 2.582031 19.667969 C 2.613281 19.613281 2.640625 19.558594 2.671875 19.5 C 4.019531 16.800781 4.5 11.820312 4.5 10.5 C 4.5 6.871094 7.078125 3.839844 10.507812 3.148438 C 10.449219 2.578125 10.722656 2.027344 11.207031 1.726562 C 11.691406 1.421875 12.308594 1.421875 12.792969 1.726562 C 13.277344 2.027344 13.550781 2.578125 13.492188 3.148438 C 14.90625 3.433594 16.175781 4.117188 17.179688 5.074219 Z M 15 22.5 C 15 24.15625 13.65625 25.5 12 25.5 C 10.34375 25.5 9 24.15625 9 22.5 Z M 0.9375 23.4375 C 0.625 23.75 0.625 24.25 0.9375 24.5625 C 1.25 24.875 1.75 24.875 2.0625 24.5625 L 24.1875 2.4375 C 24.5 2.125 24.5 1.625 24.1875 1.3125 C 23.875 1 23.375 1 23.0625 1.3125 Z M 0.9375 23.4375 "/>
</g>
</svg>
